<?xml version="1.0" encoding="UTF-8" standalone="no"?>
<!-- Created with Inkscape (http://www.inkscape.org/) -->

<svg
   width="112.63684"
   height="112.63684"
   viewBox="0 0 112.63684 112.63684"
   version="1.1"
   id="svg1"
   xmlns="http://www.w3.org/2000/svg"
   xmlns:svg="http://www.w3.org/2000/svg">
  <defs
     id="defs1" />
  <g
     id="layer1"
     transform="translate(-3.6815786,-3.6815786)">
    <circle
       style="fill:none;fill-opacity:1;stroke:#ffffff;stroke-width:3.83864;stroke-linecap:round;stroke-linejoin:round;stroke-dasharray:none;stroke-opacity:1"
       id="path1"
       cx="60"
       cy="60"
       r="54.399101" />
    <g
       id="g8"
       transform="matrix(1.287084,0,0,1.287084,-17.225038,-17.225031)">
      <g
         id="g5"
         transform="translate(1.7306305,1.39269)"
         style="fill:none;fill-opacity:1;paint-order:stroke markers fill">
        <path
           style="fill:none;fill-opacity:1;stroke:#ffffff;stroke-width:2.78538;stroke-linecap:round;stroke-linejoin:round;stroke-dasharray:none;stroke-opacity:1;paint-order:stroke markers fill"
           d="m 51.465906,60 c 0,0 -10.028688,-3.652628 -11.525534,-13.477348 C 37.462786,30.260736 70.775983,26.883734 71.291061,28.300198"
           id="path2" />
        <path
           style="fill:none;fill-opacity:1;stroke:#ffffff;stroke-width:2.78538;stroke-linecap:round;stroke-linejoin:round;stroke-dasharray:none;stroke-opacity:1;paint-order:stroke markers fill"
           d="m 51.465906,60 c 0,0 11.348097,3.54084 11.525535,13.477348 0.177438,9.936508 -17.743763,15.437074 -17.743763,15.437074"
           id="path2-3" />
        <path
           style="fill:none;fill-opacity:1;stroke:#ffffff;stroke-width:2.78538;stroke-linecap:round;stroke-linejoin:round;stroke-dasharray:none;stroke-opacity:1;paint-order:stroke markers fill"
           d="m 65.072833,57.21462 c 0,0 10.028688,3.652628 11.525534,13.477348 2.477586,16.261916 -30.835611,19.638918 -31.350689,18.222454"
           id="path2-2" />
        <path
           style="fill:none;fill-opacity:1;stroke:#ffffff;stroke-width:2.78538;stroke-linecap:round;stroke-linejoin:round;stroke-dasharray:none;stroke-opacity:1;paint-order:stroke markers fill"
           d="m 65.072833,57.21462 c 0,0 -11.348097,-3.54084 -11.525535,-13.477348 C 53.36986,33.800766 71.291061,28.300196 71.291061,28.300196"
           id="path2-3-9" />
      </g>
      <g
         id="g7">
        <path
           style="fill:none;fill-opacity:1;stroke:#ffffff;stroke-width:5.6;stroke-linecap:round;stroke-linejoin:round;stroke-dasharray:none;stroke-opacity:1;paint-order:stroke markers fill"
           d="m 64.149163,31.95946 -16.987001,8.918919 6.721782,13.918918 22.12957,23.108109 -18.730438,9.932432 M 61.149163,54.95946"
           id="path7" />
        <path
           style="fill:none;fill-opacity:1;stroke:#ffffff;stroke-width:5.6;stroke-linecap:round;stroke-linejoin:round;stroke-dasharray:none;stroke-opacity:1;paint-order:stroke markers fill"
           d="m 64.149163,31.95946 -19.419433,12.190638 2.537927,9.295848 14.320137,8.464577 7.15017,13.939378 -3.120099,7.568141 -8.334789,4.419796"
           id="path7-5" />
        <path
           style="fill:none;fill-opacity:1;stroke:#ffffff;stroke-width:5.6;stroke-linecap:round;stroke-linejoin:round;stroke-dasharray:none;stroke-opacity:1;paint-order:stroke markers fill"
           d="m 64.149163,31.95946 -11.514028,4.487935 -0.523081,14.680816 22.989254,17.471501 0.596115,6.003396 -10.079558,8.814934 -8.334789,4.419796"
           id="path7-5-5" />
      </g>
    </g>
  </g>
</svg>
